<svg xmlns="http://www.w3.org/2000/svg" viewBox="0 0 460 460"><path d="M386.188 402.152c-6.231-1.869-12.534-3.757-19.514-5.464a139.175 139.175 0 0 0 1.533-20.513c0-64.396-44.27-118.643-103.973-133.913a38.302 38.302 0 0 0 4.133-17.27c0-17.698-12.047-32.629-28.367-37.041v-71.783c8.662 1.02 14.141 3.37 20.242 5.987 8.9 3.818 18.989 8.146 38.15 8.146 19.147 0 29.232-4.327 38.129-8.146 8.158-3.501 15.204-6.524 30.242-6.524h10v-88.86h-10c-19.145 0-29.228 4.319-38.123 8.131-8.16 3.496-15.207 6.515-30.248 6.515-15.055 0-22.106-3.021-30.271-6.517-8.896-3.811-18.979-8.129-38.121-8.129h-10v161.181c-16.321 4.412-28.368 19.342-28.368 37.041a38.268 38.268 0 0 0 4.117 17.274c-59.695 15.277-103.957 69.52-103.957 133.909 0 10.321 1.134 20.508 3.373 30.451-5.407-1.4-10.493-2.925-15.654-4.473-19.53-5.862-39.725-11.922-79.511-11.922v20c36.851 0 54.78 5.381 73.763 11.076 19.529 5.861 39.725 11.921 79.511 11.921 39.808 0 60.013-6.06 79.553-11.92 18.995-5.696 36.937-11.077 73.811-11.077 36.872 0 54.813 5.381 73.807 11.077 19.541 5.86 39.747 11.92 79.557 11.92v-20c-36.877 0-54.818-5.38-73.814-11.077zM240 47.306c8.665 1.018 14.145 3.364 20.247 5.979 8.9 3.812 18.988 8.132 38.146 8.132 19.145 0 29.228-4.319 38.123-8.131 6.103-2.614 11.582-4.962 20.248-5.979v48.764c-12.941 1.192-20.925 4.617-28.129 7.709-8.158 3.501-15.204 6.524-30.242 6.524-15.052 0-22.103-3.024-30.266-6.526-7.204-3.091-15.187-6.516-28.127-7.707V47.306zm-28.368 177.686c0-10.13 8.24-18.371 18.368-18.371s18.367 8.241 18.367 18.371c0 5.168-2.207 10.09-5.986 13.537-4.08-.364-8.208-.561-12.381-.561-4.18 0-8.315.198-12.401.563a18.32 18.32 0 0 1-5.967-13.539zm15.449 177.16c-18.994 5.696-36.935 11.077-73.808 11.077-14.665 0-26.327-.854-36.258-2.239a118.03 118.03 0 0 1-5.223-34.815c0-65.18 53.028-118.207 118.208-118.207s118.207 53.027 118.207 118.207c0 5.585-.398 11.167-1.178 16.684-11.039-1.607-24.065-2.628-40.392-2.628-39.809.001-60.015 6.061-79.556 11.921z"/></svg>