<svg xmlns="http://www.w3.org/2000/svg" viewBox="0 0 34.85 34.85"><path d="M17.424 26.788c-5.163 0-9.363-4.2-9.363-9.363 0-5.164 4.2-9.364 9.363-9.364s9.363 4.201 9.363 9.364c.001 5.163-4.2 9.363-9.363 9.363zm0-17.727c-4.611 0-8.363 3.752-8.363 8.364 0 4.611 3.752 8.363 8.363 8.363s8.363-3.752 8.363-8.363c.001-4.612-3.751-8.364-8.363-8.364zm0-4.079a.5.5 0 0 1-.5-.5V.5a.5.5 0 0 1 1 0v3.982c0 .277-.223.5-.5.5zm0 29.868a.5.5 0 0 1-.5-.5v-3.982a.5.5 0 0 1 1 0v3.982a.5.5 0 0 1-.5.5zM4.482 17.925H.5a.5.5 0 0 1 0-1h3.981a.5.5 0 0 1 .001 1zm29.867 0h-3.982a.5.5 0 0 1 0-1h3.982a.5.5 0 0 1 0 1zM8.274 8.771a.502.502 0 0 1-.354-.146L5.104 5.811a.5.5 0 0 1 .707-.707l2.816 2.814a.5.5 0 0 1-.353.853zm21.119 21.122a.502.502 0 0 1-.354-.146l-2.816-2.817a.5.5 0 0 1 .707-.707l2.816 2.817a.5.5 0 0 1-.353.853zm-23.935 0a.5.5 0 0 1-.354-.853l2.816-2.817a.5.5 0 0 1 .707.707l-2.816 2.817a.502.502 0 0 1-.353.146zM26.577 8.771a.5.5 0 0 1-.354-.853l2.816-2.814a.5.5 0 0 1 .707.707L26.93 8.625a.494.494 0 0 1-.353.146z"/></svg>