<svg xmlns="http://www.w3.org/2000/svg" viewBox="0 0 512 512"><path d="M167 113a19.937 19.937 0 0 0 14.115-5.831L236 52.494V176c0 11.046 8.954 20 20 20s20-8.954 20-20V50.944l55.815 56.155c7.785 7.835 20.45 7.871 28.284.086 7.834-7.787 7.872-20.45.085-28.284l-60.955-61.327C287.896 6.241 272.829 0 256.803 0s-31.094 6.241-42.399 17.547l-61.519 61.284c-7.825 7.795-7.85 20.458-.054 28.284A19.933 19.933 0 0 0 167 113zm316.288 339.152C474.715 441.887 461.853 436 448 436c-13.853 0-26.715 5.887-35.288 16.152C402.176 464.766 391.711 472 384 472s-18.176-7.234-28.712-19.848C346.715 441.887 333.853 436 320 436c-13.853 0-26.715 5.887-35.288 16.152C274.176 464.766 263.711 472 256 472s-18.176-7.234-28.712-19.848C218.715 441.887 205.853 436 192 436c-13.853 0-26.715 5.887-35.288 16.152C146.176 464.766 135.711 472 128 472s-18.176-7.234-28.712-19.848C90.715 441.887 77.853 436 64 436c-13.853 0-26.715 5.887-35.288 16.152C18.176 464.766 7.711 472 0 472v40c20.464 0 40.453-11.508 59.411-34.206C60.35 476.67 62.065 476 64 476s3.65.67 4.589 1.794C87.547 500.492 107.536 512 128 512s40.453-11.508 59.411-34.206C188.35 476.67 190.065 476 192 476s3.65.67 4.589 1.794C215.547 500.492 235.536 512 256 512s40.453-11.508 59.411-34.206C316.35 476.67 318.065 476 320 476s3.65.67 4.589 1.794C343.547 500.492 363.536 512 384 512s40.453-11.508 59.411-34.206C444.35 476.67 446.065 476 448 476s3.65.67 4.589 1.794C471.547 500.492 491.536 512 512 512v-40c-7.711 0-18.176-7.234-28.712-19.848zm0-201C474.715 240.887 461.853 235 448 235c-13.853 0-26.715 5.887-35.288 16.152C402.176 263.766 391.711 271 384 271s-18.176-7.234-28.712-19.848C346.715 240.887 333.853 235 320 235c-13.853 0-26.715 5.887-35.288 16.152C274.176 263.766 263.711 271 256 271s-18.176-7.234-28.712-19.848C218.715 240.887 205.853 235 192 235c-13.853 0-26.715 5.887-35.288 16.152C146.176 263.766 135.711 271 128 271s-18.176-7.234-28.712-19.848C90.715 240.887 77.853 235 64 235s-26.715 5.887-35.288 16.152C18.176 263.766 7.711 271 0 271v40c20.464 0 40.453-11.508 59.411-34.206C60.35 275.67 62.065 275 64 275s3.65.67 4.589 1.794C87.547 299.492 107.536 311 128 311s40.453-11.508 59.411-34.206C188.35 275.67 190.065 275 192 275s3.65.67 4.589 1.794C215.547 299.492 235.536 311 256 311s40.453-11.508 59.411-34.206C316.35 275.67 318.065 275 320 275s3.65.67 4.589 1.794C343.547 299.492 363.536 311 384 311s40.453-11.508 59.411-34.206C444.35 275.67 446.065 275 448 275s3.65.67 4.589 1.794C471.547 299.492 491.536 311 512 311v-40c-7.711 0-18.176-7.234-28.712-19.848zm0 101C474.715 341.887 461.853 336 448 336c-13.853 0-26.715 5.887-35.288 16.152C402.176 364.766 391.711 372 384 372s-18.176-7.234-28.712-19.848C346.715 341.887 333.853 336 320 336c-13.853 0-26.715 5.887-35.288 16.152C274.176 364.766 263.711 372 256 372s-18.176-7.234-28.712-19.848C218.715 341.887 205.853 336 192 336c-13.853 0-26.715 5.887-35.288 16.152C146.176 364.766 135.711 372 128 372s-18.176-7.234-28.712-19.848C90.715 341.887 77.853 336 64 336c-13.853 0-26.715 5.887-35.288 16.152C18.176 364.766 7.711 372 0 372v40c20.464 0 40.453-11.508 59.411-34.206C60.35 376.67 62.065 376 64 376s3.65.67 4.589 1.794C87.547 400.492 107.536 412 128 412s40.453-11.508 59.411-34.206C188.35 376.67 190.065 376 192 376s3.65.67 4.589 1.794C215.547 400.492 235.536 412 256 412s40.453-11.508 59.411-34.206C316.35 376.67 318.065 376 320 376s3.65.67 4.589 1.794C343.547 400.492 363.536 412 384 412s40.453-11.508 59.411-34.206C444.35 376.67 446.065 376 448 376s3.65.67 4.589 1.794C471.547 400.492 491.536 412 512 412v-40c-7.711 0-18.176-7.234-28.712-19.848z"/></svg>